<?xml version="1.0" encoding="UTF-8" standalone="no"?>
<!-- Created with Inkscape (http://www.inkscape.org/) -->

<svg
   version="1.1"
   id="svg1"
   width="48.569172"
   height="48.569172"
   viewBox="0 0 48.569172 48.569172"
   xmlns="http://www.w3.org/2000/svg"
   xmlns:svg="http://www.w3.org/2000/svg">
  <defs
     id="defs1" />
  <g
     id="g1">
    <path
       style="fill:#800000"
       d="M 22.179748,48.432253 C 17.684544,48.003652 13.409609,46.339499 9.7137867,43.579485 8.5431927,42.705293 5.9584127,40.120514 5.0842217,38.94992 c -6.602377,-8.840974 -6.602377,-20.549446 0,-29.39042 0.874191,-1.1705942 3.458971,-3.7553736 4.629565,-4.629565 8.8409743,-6.6023774 20.5494463,-6.6023774 29.3904203,0 1.170594,0.8741914 3.755373,3.4589708 4.629565,4.629565 6.602377,8.840974 6.602377,20.549446 0,29.39042 -0.874192,1.170594 -3.458971,3.755373 -4.629565,4.629565 -4.930748,3.682247 -10.987313,5.418853 -16.924459,4.852768 z m 4.316787,-6.389785 c 3.363417,-0.400415 6.276256,-1.606036 8.992649,-3.722047 1.548936,-1.206588 1.97107,-2.411396 1.575954,-4.497919 -0.288863,-1.525427 -1.018175,-2.954076 -2.067554,-4.050136 -1.059846,-1.106993 -2.362756,-1.879793 -3.90084,-2.31372 -0.750907,-0.211848 -0.82128,-0.2141 -6.687747,-0.2141 -5.866467,0 -5.93684,0.0023 -6.687747,0.2141 -2.699752,0.761659 -4.795095,2.678089 -5.65219,5.16957 -0.350317,1.018333 -0.502116,2.032405 -0.436071,2.913101 0.101526,1.353819 0.756079,2.20616 2.720672,3.542785 3.550312,2.41548 7.867701,3.467325 12.142874,2.958366 z M 25.836653,23.15726 c 2.65467,-0.503582 4.920221,-2.309785 5.94949,-4.743212 0.864501,-2.043874 0.83754,-4.528197 -0.07019,-6.468082 C 30.341572,9.0088223 27.632016,7.2777662 24.409,7.2777662 c -3.301469,0 -6.064161,1.8171244 -7.376047,4.8514978 -0.852096,1.970885 -0.836466,4.379546 0.04134,6.370053 0.812496,1.842417 2.461639,3.448183 4.321745,4.208069 1.363848,0.557156 3.000834,0.722997 4.440621,0.449874 z"
       id="path1" />
  </g>
</svg>
