<?xml version="1.0" encoding="UTF-8" standalone="no"?>
<!-- Created with Inkscape (http://www.inkscape.org/) -->

<svg
   version="1.1"
   id="svg1"
   width="49.791309"
   height="33.923717"
   viewBox="0 0 49.791309 33.923717"
   xmlns="http://www.w3.org/2000/svg"
   xmlns:svg="http://www.w3.org/2000/svg">
  <defs
     id="defs1" />
  <g
     id="g1"
     transform="matrix(0.09116231,0,0,0.08835769,-0.12312795,-7.7517193)">
    <path
       style="fill:#800000"
       d="m 39.900135,470.61798 c -18.14471,-3.56342 -33.9100996,-19.65302 -37.4267996,-38.1965 -1.49691999,-7.89323 -1.49691999,-297.40633 0,-305.29956 3.60135,-18.98982 19.2716396,-34.660108 38.2614596,-38.261448 7.94004,-1.5058 459.492845,-1.5058 467.432885,0 18.98982,3.60134 34.66011,19.271628 38.26146,38.261448 1.44166,7.60186 1.48711,295.7418 0.048,304.5293 -3.15069,19.2392 -18.97882,35.36573 -38.30949,39.03172 -7.14027,1.35412 -461.362495,1.29111 -468.267545,-0.065 z M 441.3804,388.50295 c -28.15771,-28.19781 -59.23911,-58.97681 -69.06978,-68.39778 l -17.87394,-17.12903 -14.67062,14.26445 c -8.06884,7.84544 -17.51153,16.14716 -20.98375,18.44826 -26.67599,17.67862 -61.98614,17.67862 -88.66214,0 -3.47222,-2.3011 -12.91491,-10.60282 -20.98375,-18.44826 l -14.67062,-14.26445 -17.87394,17.12903 c -9.83067,9.42097 -40.91207,40.19997 -69.06978,68.39778 L 56.326245,439.77169 H 274.45124 492.57623 Z m -331.73287,-46.79582 61.86293,-61.93488 -53.3296,-53.40227 C 88.849575,196.99872 57.771245,166.2233 49.117915,157.98015 L 33.384585,142.9926 v 136.76606 136.76607 l 7.2,-6.44136 c 3.96,-3.54275 35.03832,-34.31206 69.062945,-68.37624 z m 405.61153,-130.46876 -0.2745,-68.53333 -68.8,68.50807 -68.79999,68.50807 68.79999,68.55859 68.8,68.55859 0.2745,-68.53333 c 0.15098,-37.69333 0.15098,-99.37333 0,-137.06666 z m -228.49859,104.2215 c 3.49659,-0.90485 8.93694,-3.18485 12.08966,-5.06667 3.90708,-2.33209 35.66227,-33.20796 99.73333,-96.97167 l 94.0011,-93.55018 H 274.45124 56.317915 l 94.001105,93.55018 c 63.92587,63.61921 95.8351,94.64657 99.73333,96.97701 10.73927,6.42014 24.25556,8.28377 36.70812,5.06133 z"
       id="path1" />
  </g>
</svg>
