<?xml version="1.0" encoding="UTF-8" standalone="no"?>
<!-- Created with Inkscape (http://www.inkscape.org/) -->

<svg
   width="28.832386"
   height="49.312317"
   viewBox="0 0 7.6285684 13.047218"
   version="1.1"
   id="svg1"
   xmlns="http://www.w3.org/2000/svg"
   xmlns:svg="http://www.w3.org/2000/svg">
  <defs
     id="defs1" />
  <g
     id="layer1"
     transform="translate(-0.26057644,-0.11545941)">
    <path
       style="opacity:1;fill:#ffeccb;fill-opacity:1;stroke:#aa0000;stroke-width:0.797995;stroke-linecap:round;stroke-linejoin:round;stroke-miterlimit:20.8;stroke-dasharray:none;stroke-dashoffset:190.753"
       id="path19"
       d="M 5.239629,1.0762813 C 5.19626,1.1272701 5.15205,1.1773694 5.1077023,1.2273059 5.0410773,1.3023329 5.0692803,1.2768449 5.0246613,1.3143049 4.9052139,1.4243665 4.7857208,1.5342423 4.6696064,1.6486371 4.5812074,1.7362401 4.4963751,1.8280996 4.4119987,1.9204113 4.3255907,2.0153403 4.2393656,2.1104717 4.1530669,2.2055224 4.0226328,2.3491275 3.8921632,2.492694 3.7617041,2.6362711 3.5633989,2.8545069 3.3650885,3.0727375 3.1667745,3.2909636 3.0011759,3.4731995 2.8355474,3.6554023 2.6699516,3.8376419 2.5063639,4.0176932 2.3427681,4.1977347 2.1791117,4.3777087 2.0901357,4.4755667 2.0011466,4.573408 1.9121467,4.6712377 1.7947573,4.8003076 1.677424,4.9294401 1.5600795,5.0585607 0.62288159,5.9847705 0.55460759,7.3418246 1.3323422,8.2571927 c 0.0847,0.093935 0.1693959,0.1878778 0.2539101,0.2820192 0.092394,0.103002 0.1846157,0.2061931 0.2768433,0.3093781 0.076577,0.085692 0.1531518,0.171379 0.229724,0.2570729 0.089791,0.1004901 0.1795895,0.2009742 0.2694046,0.3014381 0.075149,0.08404 0.1503017,0.1680858 0.2254597,0.2521224 0.074277,0.083025 0.1485529,0.1660491 0.2228288,0.2490737 0.086745,0.096954 0.1734942,0.1938999 0.2602454,0.2908449 0.092029,0.102862 0.1840908,0.20569 0.2761925,0.308475 0.078126,0.08719 0.1562763,0.174358 0.2344634,0.261484 0.091493,0.101936 0.1829099,0.203953 0.2743547,0.305941 0.1041077,0.116047 0.208205,0.232105 0.3122634,0.348206 0.1173457,0.130962 0.2346413,0.261976 0.3522055,0.392694 0.058326,0.0648 0.11676,0.129464 0.1750868,0.194255 0.0865,0.09612 0.1728774,0.192375 0.2593561,0.288517 l 0.034039,0.03779 c 1.1104466,1.232771 2.6815029,-0.509914 1.5710563,-1.742686 v 0 c -0.010971,-0.01218 -0.021939,-0.02437 -0.032914,-0.03654 -0.086707,-0.09639 -0.1733081,-0.192898 -0.260035,-0.289267 -0.058073,-0.06451 -0.116249,-0.1289 -0.1743234,-0.193405 C 5.9758461,9.9448956 5.8594629,9.8148878 5.7430218,9.6849429 5.6388598,9.5687245 5.5346577,9.4525494 5.4304453,9.3363861 5.3387731,9.2341451 5.2471283,9.1318724 5.1554072,9.0296836 5.0776103,8.9429915 4.9998491,8.8562618 4.9221122,8.7695031 4.8303674,8.6671172 4.7386626,8.5646869 4.6469896,8.4622218 4.5603022,8.3653487 4.473617,8.2684738 4.3869368,8.1715929 4.3127415,8.0886588 4.2385477,8.0057238 4.1643517,7.9227916 4.0892943,7.8388679 4.014243,7.7549385 3.9391932,7.6710062 3.8495084,7.5706878 3.7598407,7.4703501 3.6701795,7.3700052 3.5935341,7.2842298 3.5168872,7.1984571 3.4402364,7.1126874 3.3468597,7.008217 3.2085918,6.8601565 3.1599426,6.7994572 3.1289252,6.750988 3.3486753,6.5568533 3.4754012,6.4225428 3.5645204,6.3245822 3.6536283,6.2266101 3.7427229,6.1286216 3.9065705,5.9484371 4.0703588,5.7681847 4.2341375,5.5879228 4.3997082,5.4057101 4.5653121,5.2235344 4.7308864,5.0413255 4.9292359,4.8230604 5.1275819,4.6047909 5.3259225,4.3865163 5.4565898,4.2427102 5.5872667,4.0989154 5.717908,3.9550816 5.802519,3.8618896 5.8870624,3.7686217 5.9717692,3.6755372 6.0291392,3.6127312 6.0865278,3.5498966 6.1464131,3.4900219 6.2626343,3.3747822 6.3850509,3.2677244 6.5027727,3.1544004 6.5437717,3.1127584 6.5854637,3.0719414 6.6257703,3.0294741 6.7194743,2.9307461 6.8060493,2.8235261 6.8951743,2.7198292 7.9424486,1.4207605 6.2869041,-0.22278502 5.239629,1.0762837 Z" 
     />
  </g>
</svg>
