<?xml version="1.0" encoding="UTF-8" standalone="no"?>
<!-- Created with Inkscape (http://www.inkscape.org/) -->

<svg
   width="28.832386"
   height="49.312317"
   viewBox="0 0 7.6285684 13.047218"
   version="1.1"
   id="svg1"
   xmlns="http://www.w3.org/2000/svg"
   xmlns:svg="http://www.w3.org/2000/svg">
  <defs
     id="defs1" />
  <g
     id="layer1"
     transform="translate(-0.26057644,-0.11545941)">
    <path
       style="opacity:1;fill:#ff7f2a;stroke:#aa0000;stroke-width:0.797995;stroke-linecap:round;stroke-linejoin:round;stroke-miterlimit:20.8;stroke-dasharray:none;stroke-dashoffset:190.753"
       id="path17"
       d="M 5.3137004,1.0712571 C 5.2703318,1.1222459 5.226121,1.1723452 5.1817737,1.2222817 5.1151483,1.2973087 5.1433512,1.2718208 5.098733,1.309281 4.9792856,1.4193426 4.8597925,1.5292184 4.7436781,1.6436132 4.6552795,1.7312163 4.5704468,1.8230757 4.4860704,1.9153874 4.3996627,2.010316 4.3134373,2.1054478 4.2271386,2.2004985 4.0967045,2.3441036 3.9662349,2.4876701 3.8357758,2.6312472 3.6374706,2.849483 3.4391602,3.0677136 3.2408462,3.2859397 3.0752476,3.4681756 2.9096191,3.6503784 2.7440233,3.832618 2.5804356,4.0126693 2.4168398,4.1927108 2.2531834,4.3726848 2.1642078,4.4705425 2.0752183,4.5683841 1.9862184,4.6662138 1.868829,4.7952837 1.7514957,4.9244162 1.6341512,5.0535368 0.69695383,5.9797466 0.62867912,7.3368007 1.4064139,8.2521688 c 0.0847,0.093935 0.1693959,0.1878778 0.2539101,0.2820192 0.092394,0.103002 0.1846157,0.2061931 0.2768433,0.3093781 0.076577,0.085692 0.1531518,0.171379 0.229724,0.2570729 0.089791,0.1004901 0.1795895,0.2009742 0.2694046,0.3014381 0.075149,0.08404 0.1503017,0.1680858 0.2254597,0.2521224 0.074277,0.083025 0.1485529,0.1660491 0.2228288,0.2490737 0.086745,0.096954 0.1734942,0.1938998 0.2602454,0.2908448 0.092029,0.102862 0.1840908,0.20569 0.2761925,0.308475 0.078126,0.08719 0.1562763,0.174358 0.2344634,0.261484 0.091493,0.101936 0.1829099,0.203953 0.2743547,0.305941 0.1041077,0.116047 0.208205,0.232105 0.3122634,0.348206 0.1173457,0.130962 0.2346413,0.261976 0.3522055,0.392694 0.058326,0.0648 0.11676,0.129464 0.1750868,0.194255 0.0865,0.09612 0.1728774,0.192375 0.2593561,0.288517 l 0.034039,0.03779 c 1.1104466,1.232771 2.6815029,-0.509914 1.5710563,-1.742686 v 0 C 6.6228764,10.57661 6.611908,10.564425 6.600933,10.55225 6.5142265,10.45586 6.4276249,10.359352 6.340898,10.262983 6.2828247,10.198474 6.224649,10.134083 6.1665746,10.069578 6.0499175,9.9398714 5.9335343,9.8098636 5.8170932,9.6799187 5.7129312,9.5637003 5.6087291,9.4475252 5.5045167,9.3313619 5.4128445,9.2291209 5.3211997,9.1268482 5.2294786,9.0246594 5.1516817,8.9379673 5.0739205,8.8512376 4.9961836,8.7644789 4.9044388,8.662093 4.812734,8.5596627 4.721061,8.4571976 4.6343736,8.3603245 4.5476884,8.2634496 4.4610082,8.1665687 4.3868129,8.0836346 4.3126191,8.0006996 4.2384231,7.9177674 4.1633657,7.8338437 4.0883144,7.7499143 4.0132646,7.665982 3.9235798,7.5656636 3.8339121,7.4653259 3.7442509,7.364981 3.6676055,7.2792056 3.5909586,7.1934329 3.5143078,7.1076632 3.4209311,7.0031928 3.2826632,6.8551323 3.234014,6.794433 3.2029966,6.7459638 3.4227467,6.5518291 3.5494726,6.4175186 3.6385918,6.319558 3.7276997,6.2215859 3.8167943,6.1235974 3.9806419,5.9434129 4.1444302,5.7631605 4.3082089,5.5828986 4.4737796,5.4006859 4.6393835,5.2185102 4.8049578,5.0363013 5.0033073,4.8180362 5.2016533,4.5997667 5.3999939,4.3814921 5.5306612,4.237686 5.6613381,4.0938912 5.7919794,3.9500574 5.8765907,3.8568651 5.9611338,3.7635975 6.0458406,3.670513 6.1032106,3.6077071 6.1605992,3.5448724 6.2204845,3.4849977 6.3367057,3.369758 6.4591223,3.2627002 6.5768441,3.1493762 6.6178428,3.1077345 6.6595353,3.0669168 6.6998417,3.0244499 6.7935458,2.9257223 6.8801207,2.8185019 6.9692457,2.714805 8.01652,1.4157363 6.3609755,-0.22780924 5.3137004,1.0712595 Z" />
  </g>
</svg>
