<?xml version="1.0" encoding="UTF-8" standalone="no"?>
<!-- Created with Inkscape (http://www.inkscape.org/) -->

<svg
   width="28.832386"
   height="49.312317"
   viewBox="0 0 7.6285684 13.047218"
   version="1.1"
   id="svg1"
   inkscape:export-filename="left_green_stroked.svg"
   inkscape:export-xdpi="96"
   inkscape:export-ydpi="96"
   sodipodi:docname="nav-arrow.svg"
   inkscape:version="1.3.2 (091e20ef0f, 2023-11-25)"
   xmlns:inkscape="http://www.inkscape.org/namespaces/inkscape"
   xmlns:sodipodi="http://sodipodi.sourceforge.net/DTD/sodipodi-0.dtd"
   xmlns="http://www.w3.org/2000/svg"
   xmlns:svg="http://www.w3.org/2000/svg">
  <sodipodi:namedview
     id="namedview1"
     pagecolor="#ffffff"
     bordercolor="#000000"
     borderopacity="0.25"
     inkscape:showpageshadow="2"
     inkscape:pageopacity="0.0"
     inkscape:pagecheckerboard="0"
     inkscape:deskcolor="#d1d1d1"
     inkscape:document-units="mm"
     showgrid="true"
     inkscape:zoom="8.0130212"
     inkscape:cx="31.199219"
     inkscape:cy="41.058172"
     inkscape:window-width="2560"
     inkscape:window-height="1389"
     inkscape:window-x="0"
     inkscape:window-y="0"
     inkscape:window-maximized="1"
     inkscape:current-layer="layer1">
    <inkscape:grid
       id="grid1"
       units="mm"
       originx="-0.26057643"
       originy="-0.11545942"
       spacingx="0.99999995"
       spacingy="1"
       empcolor="#0099e5"
       empopacity="0.30196078"
       color="#0099e5"
       opacity="0.14901961"
       empspacing="5"
       dotted="false"
       gridanglex="30"
       gridanglez="30"
       visible="true" />
  </sodipodi:namedview>
  <defs
     id="defs1">
    <inkscape:path-effect
       effect="bspline"
       id="path-effect2"
       is_visible="true"
       lpeversion="1.3"
       weight="33.333333"
       steps="2"
       helper_size="0"
       apply_no_weight="true"
       apply_with_weight="true"
       only_selected="false"
       uniform="false" />
    <inkscape:path-effect
       effect="bspline"
       id="path-effect1"
       is_visible="true"
       lpeversion="1.3"
       weight="33.333333"
       steps="2"
       helper_size="0"
       apply_no_weight="true"
       apply_with_weight="true"
       only_selected="false"
       uniform="false" />
  </defs>
  <g
     inkscape:label="Layer 1"
     inkscape:groupmode="layer"
     id="layer1"
     transform="translate(-0.26057644,-0.11545941)">
    <path
       style="display:none;opacity:1;fill:#ff7f2a;stroke:#aa0000;stroke-width:1.02306;stroke-linecap:round;stroke-linejoin:round;stroke-miterlimit:20.8;stroke-dasharray:none;stroke-dashoffset:190.753"
       d="M -8.1124822,8.2426464 -14.163741,14.247273 -8.2214463,20.2426"
       id="path16" />
    <path
       style="opacity:1;fill:#ffeccb;fill-opacity:1;stroke:#aa0000;stroke-width:0.800545;stroke-linecap:round;stroke-linejoin:round;stroke-miterlimit:20.8;stroke-dasharray:none;stroke-dashoffset:190.753"
       id="path17"
       d="m 17.035334,0.83804288 c 0.04366,0.050972 0.08817,0.1010556 0.132815,0.150976 0.06707,0.075003 0.03868,0.049523 0.0836,0.086971 0.120254,0.1100262 0.240546,0.2198666 0.357441,0.3342246 0.08899,0.087575 0.174397,0.1794047 0.259341,0.2716867 0.08699,0.094898 0.173794,0.1899992 0.260674,0.2850194 0.13131,0.1435589 0.262658,0.2870791 0.393994,0.4306101 0.199639,0.2181655 0.399282,0.4363259 0.598931,0.6544818 0.166711,0.1821772 0.333454,0.3643213 0.500163,0.5465023 0.164689,0.1799934 0.329385,0.3599768 0.494142,0.5398929 0.08958,0.097826 0.179162,0.1956364 0.26876,0.2934346 0.118177,0.1290284 0.236302,0.2581193 0.354434,0.3871984 0.943501,0.9259116 1.012235,2.282529 0.22927,3.1976024 -0.08527,0.093905 -0.170536,0.1878174 -0.255618,0.2819285 -0.09301,0.1029688 -0.185857,0.2061268 -0.278705,0.3092785 -0.07709,0.085664 -0.154181,0.1713239 -0.231269,0.2569902 -0.0904,0.1004578 -0.180797,0.2009095 -0.271217,0.301341 -0.07566,0.084013 -0.151312,0.1680318 -0.226975,0.2520413 -0.07477,0.082999 -0.149552,0.165996 -0.224328,0.2489935 -0.08732,0.096915 -0.174661,0.1938365 -0.261995,0.2907505 -0.09264,0.1028294 -0.185329,0.2056254 -0.27805,0.3083764 -0.07865,0.08717 -0.157327,0.174302 -0.236041,0.2614 -0.09211,0.101904 -0.184139,0.203887 -0.2762,0.305842 -0.104814,0.11601 -0.209605,0.23203 -0.314363,0.348095 -0.118139,0.130919 -0.236219,0.261892 -0.354574,0.392567 -0.05872,0.06477 -0.117544,0.129422 -0.176264,0.194193 -0.08708,0.09609 -0.17404,0.192313 -0.2611,0.288424 l -0.03426,0.03778 c -1.117919,1.232372 -2.699541,-0.509752 -1.581626,-1.742128 v 0 c 0.01105,-0.01217 0.02209,-0.02436 0.03314,-0.03653 0.08729,-0.09636 0.174474,-0.19284 0.261784,-0.289178 0.05846,-0.06449 0.117031,-0.1288584 0.175496,-0.1933434 0.117441,-0.129661 0.234608,-0.2596275 0.351832,-0.3895308 0.104865,-0.116181 0.209765,-0.2323187 0.314678,-0.3484446 0.09229,-0.1022081 0.18455,-0.2044478 0.276889,-0.3066037 0.07832,-0.086664 0.156604,-0.173366 0.234863,-0.2600968 0.09236,-0.102353 0.184684,-0.2047503 0.276974,-0.3071824 0.08727,-0.096842 0.174538,-0.1936857 0.261801,-0.2905354 0.07469,-0.082907 0.149388,-0.1658157 0.224082,-0.2487212 0.07557,-0.083897 0.151119,-0.1677991 0.226672,-0.2517044 0.09029,-0.1002861 0.180559,-0.2005915 0.270823,-0.3009041 0.07716,-0.085748 0.154324,-0.1714928 0.23149,-0.257235 0.09401,-0.1044368 0.233203,-0.2524496 0.282179,-0.3131294 0.03122,-0.048453 -0.190002,-0.2425258 -0.31758,-0.376793 C 18.721709,6.0846547 18.632001,5.9867141 18.542308,5.8887571 18.377358,5.7086306 18.212469,5.5284363 18.047588,5.3482324 17.880904,5.1660783 17.714186,4.9839613 17.547498,4.801811 17.347814,4.5836161 17.148135,4.3654169 16.948461,4.1472125 16.816915,4.0034527 16.685358,3.8597042 16.553839,3.7159167 16.468658,3.6227544 16.383547,3.5295168 16.29827,3.4364623 16.240515,3.3736766 16.18274,3.3108621 16.122452,3.2510067 16.005449,3.135804 15.882209,3.0287808 15.763696,2.9154932 15.722421,2.8738649 15.680448,2.8330603 15.639871,2.7906071 15.545537,2.6919112 15.458379,2.5847254 15.368655,2.4810618 14.314338,1.1824112 15.981016,-0.46060538 17.035334,0.83804528 Z"
       sodipodi:nodetypes="csccccccccccccccccccccccccccsscccccccccccccccccccccccsccc" />
    <path
       style="opacity:1;fill:#ffeccb;stroke:#aad400;stroke-width:0.797995;stroke-linecap:round;stroke-linejoin:round;stroke-miterlimit:20.8;stroke-dasharray:none;stroke-dashoffset:190.753;fill-opacity:1"
       id="path19"
       d="M 5.239629,1.0762813 C 5.19626,1.1272701 5.15205,1.1773694 5.1077023,1.2273059 5.0410773,1.3023329 5.0692803,1.2768449 5.0246613,1.3143049 4.9052139,1.4243665 4.7857208,1.5342423 4.6696064,1.6486371 4.5812074,1.7362401 4.4963751,1.8280996 4.4119987,1.9204113 4.3255907,2.0153403 4.2393656,2.1104717 4.1530669,2.2055224 4.0226328,2.3491275 3.8921632,2.492694 3.7617041,2.6362711 3.5633989,2.8545069 3.3650885,3.0727375 3.1667745,3.2909636 3.0011759,3.4731995 2.8355474,3.6554023 2.6699516,3.8376419 2.5063639,4.0176932 2.3427681,4.1977347 2.1791117,4.3777087 2.0901357,4.4755667 2.0011466,4.573408 1.9121467,4.6712377 1.7947573,4.8003076 1.677424,4.9294401 1.5600795,5.0585607 0.62288159,5.9847705 0.55460759,7.3418246 1.3323422,8.2571927 c 0.0847,0.093935 0.1693959,0.1878778 0.2539101,0.2820192 0.092394,0.103002 0.1846157,0.2061931 0.2768433,0.3093781 0.076577,0.085692 0.1531518,0.171379 0.229724,0.2570729 0.089791,0.1004901 0.1795895,0.2009742 0.2694046,0.3014381 0.075149,0.08404 0.1503017,0.1680858 0.2254597,0.2521224 0.074277,0.083025 0.1485529,0.1660491 0.2228288,0.2490737 0.086745,0.096954 0.1734942,0.1938999 0.2602454,0.2908449 0.092029,0.102862 0.1840908,0.20569 0.2761925,0.308475 0.078126,0.08719 0.1562763,0.174358 0.2344634,0.261484 0.091493,0.101936 0.1829099,0.203953 0.2743547,0.305941 0.1041077,0.116047 0.208205,0.232105 0.3122634,0.348206 0.1173457,0.130962 0.2346413,0.261976 0.3522055,0.392694 0.058326,0.0648 0.11676,0.129464 0.1750868,0.194255 0.0865,0.09612 0.1728774,0.192375 0.2593561,0.288517 l 0.034039,0.03779 c 1.1104466,1.232771 2.6815029,-0.509914 1.5710563,-1.742686 v 0 c -0.010971,-0.01218 -0.021939,-0.02437 -0.032914,-0.03654 -0.086707,-0.09639 -0.1733081,-0.192898 -0.260035,-0.289267 -0.058073,-0.06451 -0.116249,-0.1289 -0.1743234,-0.193405 C 5.9758461,9.9448956 5.8594629,9.8148878 5.7430218,9.6849429 5.6388598,9.5687245 5.5346577,9.4525494 5.4304453,9.3363861 5.3387731,9.2341451 5.2471283,9.1318724 5.1554072,9.0296836 5.0776103,8.9429915 4.9998491,8.8562618 4.9221122,8.7695031 4.8303674,8.6671172 4.7386626,8.5646869 4.6469896,8.4622218 4.5603022,8.3653487 4.473617,8.2684738 4.3869368,8.1715929 4.3127415,8.0886588 4.2385477,8.0057238 4.1643517,7.9227916 4.0892943,7.8388679 4.014243,7.7549385 3.9391932,7.6710062 3.8495084,7.5706878 3.7598407,7.4703501 3.6701795,7.3700052 3.5935341,7.2842298 3.5168872,7.1984571 3.4402364,7.1126874 3.3468597,7.008217 3.2085918,6.8601565 3.1599426,6.7994572 3.1289252,6.750988 3.3486753,6.5568533 3.4754012,6.4225428 3.5645204,6.3245822 3.6536283,6.2266101 3.7427229,6.1286216 3.9065705,5.9484371 4.0703588,5.7681847 4.2341375,5.5879228 4.3997082,5.4057101 4.5653121,5.2235344 4.7308864,5.0413255 4.9292359,4.8230604 5.1275819,4.6047909 5.3259225,4.3865163 5.4565898,4.2427102 5.5872667,4.0989154 5.717908,3.9550816 5.802519,3.8618896 5.8870624,3.7686217 5.9717692,3.6755372 6.0291392,3.6127312 6.0865278,3.5498966 6.1464131,3.4900219 6.2626343,3.3747822 6.3850509,3.2677244 6.5027727,3.1544004 6.5437717,3.1127584 6.5854637,3.0719414 6.6257703,3.0294741 6.7194743,2.9307461 6.8060493,2.8235261 6.8951743,2.7198292 7.9424486,1.4207605 6.2869041,-0.22278502 5.239629,1.0762837 Z"
       sodipodi:nodetypes="csccccccccccccccccccccccccccsscccccccccccccccccccccccsccc" />
  </g>
</svg>
