<?xml version="1.0" encoding="UTF-8" standalone="no"?>
<!-- Created with Inkscape (http://www.inkscape.org/) -->

<svg
   version="1.1"
   id="svg1"
   width="94.720001"
   height="49.599998"
   viewBox="0 0 94.720001 49.599998"
   xmlns="http://www.w3.org/2000/svg"
   xmlns:svg="http://www.w3.org/2000/svg">
  <defs
     id="defs1" />
  <g
     id="g1">
    <path
       style="fill:990011"
       d="M 4.1472054,42.382218 3.6828617,41.483994 3.4468654,40.430579 c -0.560978,-2.504033 1.267821,-4.20406 6.530187,-8.436661 1.7069406,-1.372918 3.3132696,-2.90181 3.5696196,-3.397536 0.642693,-1.242832 2.363191,-8.025149 2.592633,-10.220333 l 0.188336,-1.801895 -0.520388,-0.199692 c -0.797418,-0.305998 -0.624745,-0.805557 0.519612,-1.503285 1.394602,-0.850305 2.21507,-0.800249 3.14422,0.191828 l 0.77578,0.828321 -0.05652,2.291679 c -0.03109,1.260424 -0.261994,3.047679 -0.513124,3.971679 -0.251131,0.924 -0.367799,1.68 -0.259262,1.68 0.314073,0 2.716511,-3.207599 3.714957,-4.96 1.483902,-2.604438 2.643148,-3.908632 4.101926,-4.614814 1.73197,-0.838432 2.781533,-0.841529 3.836973,-0.01132 2.671095,2.101084 0.205359,7.273367 -3.978558,8.345672 -1.720827,0.441035 -1.539299,0.909438 0.353611,0.912436 1.856688,0.0029 4.364218,-1.407115 6.674251,-3.753121 l 2.125749,-2.158853 2.181139,-4.849534 c 1.199626,-2.667243 2.453782,-5.0962726 2.787014,-5.3978426 0.333232,-0.3015709 1.25972,-0.6220079 2.058862,-0.7120829 l 1.452982,-0.163773 v 0.525997 c 0,0.4990969 -3.331893,8.1701695 -4.930108,11.3506685 -0.410854,0.817612 -0.854032,1.83159 -0.984841,2.253285 l -0.237834,0.766718 1.342838,-0.214729 c 1.905169,-0.304648 4.31629,-1.610514 5.232714,-2.834042 0.430351,-0.574566 1.747611,-3.157506 2.927246,-5.739867 1.179634,-2.5823616 2.414615,-4.9393906 2.744402,-5.2378436 0.329787,-0.2984529 1.253456,-0.6163389 2.052598,-0.7064139 l 1.452986,-0.163773 v 0.525997 c 0,0.4990969 -3.331894,8.1701695 -4.930109,11.3506685 -0.410854,0.817612 -0.854032,1.83159 -0.984841,2.253285 l -0.237834,0.766718 1.345757,-0.215195 c 1.933779,-0.309224 3.816147,-1.36612 4.43335,-2.489201 1.689655,-3.074549 4.125816,-5.06904 6.191554,-5.06904 1.194395,0 2.444822,1.129146 2.688427,2.42767 0.490226,2.613133 -1.928435,5.779546 -5.019915,6.571868 -1.0012,0.2566 -1.422989,0.493765 -1.167097,0.656239 1.253648,0.795983 4.708399,-0.295971 6.910169,-2.184119 l 1.069461,-0.917127 -0.556534,-0.969705 -0.228681,-1.052337 0.203611,-1.037345 c 0.53169,-2.708825 3.756513,-4.756225 4.907346,-4.31461 l 0.429713,0.789622 -0.158203,0.833532 -0.21539,1.436312 h 0.61938 c 0.34065,0 1.24306,-0.220052 2.00536,-0.489004 2.35977,-0.832578 2.81612,-0.131338 1.38738,2.131925 -1.0664,1.689283 -1.7329,3.595957 -1.7329,4.957312 v 1.079767 h 0.58927 c 0.87161,0 4.53073,-3.932843 4.53073,-4.869653 0,-2.04806 3.34597,-5.381149 5.50244,-5.481254 l 0.75932,0.247433 0.40176,0.433119 c 0.0697,0.491506 -0.22543,1.036923 -0.90436,1.671143 -0.55434,0.517825 -0.92323,1.078476 -0.81976,1.245891 0.10347,0.167414 0.9046,0.542367 1.7803,0.833227 0.8757,0.290861 1.88201,0.89729 2.23624,1.347622 0.72426,0.920747 0.86105,2.929095 0.27419,4.025655 l -0.36987,0.691105 0.76987,-0.502978 c 0.42342,-0.276638 1.66725,-1.569102 2.76405,-2.872142 1.8791,-2.232445 2.96582,-3.041728 2.96582,-2.208662 0,0.202086 -0.66661,1.400645 -1.48134,2.663463 -1.98485,3.076464 -5.55266,6.536407 -7.95953,7.718901 l -1.991654,0.665658 -2.045476,0.40808 c -2.488805,0.496525 -3.30443,-0.188951 -3.80435,-1.703708 l -0.3736,-1.132016 0.34361,-1.030441 0.34361,-1.03044 -0.69863,0.96 c -0.38425,0.528 -1.36971,1.644 -2.18992,2.48 l -1.215912,1.119209 -1.379938,0.400791 c -0.583394,0.169442 -1.384074,-0.204651 -1.725713,-0.454779 l -0.569073,-0.83963 -0.03062,-1.48037 c -0.03488,-1.686347 0.36429,-2.822471 1.950854,-6.425221 l 0.17615,-0.4 h -1.302311 -1.302313 l -1.349969,2 c -2.03007,3.00758 -5.312137,6.292479 -7.153878,7.160051 -2.126208,1.001572 -3.121832,0.963731 -4.387051,-0.166743 l -0.713233,-1.604438 -0.445435,-1.728683 -0.121519,-2.40643 -1.454042,0.773121 c -0.799723,0.425217 -1.617302,0.773122 -1.816841,0.773122 -0.247296,0 -0.323198,0.700854 -0.23841,2.201395 0.08162,1.444437 -0.06016,2.84736 -0.412331,4.08 -1.79056,6.267238 -8.821269,12.86276 -11.188281,10.495747 -0.700858,-0.700857 -0.6429,-3.153368 0.133014,-5.628632 0.349729,-1.115681 0.636361,-2.10051 0.63696,-2.18851 5.98e-4,-0.088 -0.575382,0.748695 -1.279957,1.859323 -1.577388,2.486451 -3.953857,4.902886 -5.695741,5.791529 -5.177243,2.641232 -5.194203,-2.800921 -0.04098,-13.148998 l 1.962999,-3.941854 -2.189577,2.144427 c -2.236691,2.19057 -4.383548,3.436007 -5.944528,3.448545 -0.517416,0.0042 -1.292245,-0.365823 -1.89614,-0.905404 l -0.744202,-1.105091 -0.417333,-1.747612 -0.140347,-1.940272 -1.925511,2.058377 -1.92551,2.058377 -1.330632,2.954326 c -3.8426,8.531509 -9.5285896,13.66988 -12.2850336,11.101861 z m 2.435551,-1.721869 c 0.47526,-0.249884 1.448096,-1.077884 2.161857,-1.84 2.1509576,-2.296677 2.3543476,-2.808794 0.272182,-0.685329 -1.914532,1.952506 -3.143794,2.602359 -4.174476,2.206849 l -0.525978,-0.201837 0.404444,0.487326 c 0.500337,0.602869 0.769051,0.607631 1.861971,0.03299 z m 1.345261,-2.777294 c 1.714242,-1.714242 3.4030126,-4.030873 3.1342996,-4.299586 -0.208063,-0.208063 -5.3754516,5.178748 -5.3754516,5.603708 0,0.66511 0.650369,0.286661 2.241152,-1.304122 z m 24.8851706,0.815217 c 0.389799,-0.273026 0.873896,-0.813026 1.075771,-1.2 l 0.367045,-0.703588 -0.829289,0.88 c -0.900678,0.955753 -1.478123,1.093726 -2.07585,0.496 -0.213333,-0.213334 -0.384,-0.241778 -0.384,-0.064 0,0.345139 0.650548,1.088 0.952798,1.088 0.101639,0 0.503725,-0.223385 0.893525,-0.496412 z m 9.6,0 c 0.389799,-0.273026 0.873896,-0.813026 1.075771,-1.2 l 0.367046,-0.703588 -0.82929,0.88 c -0.900678,0.955753 -1.478123,1.093726 -2.07585,0.496 -0.213333,-0.213334 -0.384,-0.241778 -0.384,-0.064 0,0.345139 0.650548,1.088 0.952798,1.088 0.101639,0 0.503725,-0.223385 0.893525,-0.496412 z m -35.2763056,-2.751879 1.909983,-1.96829 -1.309286,1.021092 c -1.097624,0.85602 -2.941494,2.915489 -2.610277,2.915489 0.05478,0 0.959089,-0.885731 2.00958,-1.968291 z M 34.606089,33.79661 c 1.542674,-2.990656 1.997778,-4.659443 1.647154,-6.039823 l -0.224059,-0.882103 -0.596058,1.155663 c -0.904947,1.754551 -3.077343,7.338739 -3.347313,8.604337 l -0.238913,1.12 0.667251,-0.598074 c 0.366987,-0.32894 1.308359,-1.84094 2.091938,-3.36 z m 9.6,0 c 1.542674,-2.990656 1.997778,-4.659443 1.647154,-6.039823 l -0.224059,-0.882103 -0.596058,1.155663 c -0.904947,1.754551 -3.077343,7.338739 -3.347313,8.604337 l -0.238912,1.12 0.66725,-0.598074 c 0.366987,-0.32894 1.308359,-1.84094 2.091938,-3.36 z m -1.41585,-10.192923 c 0.01049,-0.246812 -0.531964,-0.09931 -1.471034,0.4 -0.818213,0.435048 -1.646213,0.790871 -1.84,0.790717 -0.228007,-1.82e-4 -0.35234,0.931418 -0.35234,2.64 0,1.452154 -0.106632,3.07228 -0.236959,3.60028 -0.130328,0.528 0.69019,-0.84 1.823373,-3.04 1.133184,-2.2 2.067816,-4.175949 2.07696,-4.390997 z m -4.783632,1.670515 c -0.235339,-0.439735 -0.540858,-0.799518 -0.678932,-0.799518 -0.138074,0 -0.0084,0.422704 0.288065,0.939342 0.647453,1.128122 1.001642,1.001418 0.390867,-0.139824 z m 9.6,0 c -0.235338,-0.439735 -0.540858,-0.799518 -0.678932,-0.799518 -0.138073,0 -0.0084,0.422704 0.288065,0.939342 0.647453,1.128122 1.001642,1.001418 0.390867,-0.139824 z m 36.960263,0.480482 c 0.31855,-0.352 0.50719,-0.64 0.41919,-0.64 -0.088,0 -0.42064,0.288 -0.73919,0.64 -0.31856,0.352 -0.5072,0.64 -0.4192,0.64 0.088,0 0.42064,-0.288 0.7392,-0.64 z M 77.0196,24.601829 c 0.2341,0.28207 0.63115,0.512855 0.88234,0.512855 0.76247,0 2.2538,-0.900972 2.48391,-1.500636 l 0.21655,-0.564307 -0.75839,0.712471 c -0.84596,0.794736 -1.84973,0.90988 -2.79355,0.320454 l -0.62772,-0.392017 -0.47776,0.632017 c -0.68114,0.901061 -0.61366,1.325611 0.0754,0.474614 l 0.57355,-0.708305 z m -47.621153,0.145586 c 0.674209,-0.201998 1.698916,-0.768925 2.277127,-1.259838 l 1.051291,-0.892569 -1.92,0.96154 -1.92,0.96154 -1.680436,-0.101702 c -0.92424,-0.05594 -1.68024,-0.06106 -1.68,-0.01139 8.66e-4,0.179265 1.454099,0.66958 2.04331,0.689404 0.331581,0.01116 1.154499,-0.144987 1.828708,-0.346985 z m 30.720001,0 c 0.674209,-0.201998 1.698916,-0.768925 2.277126,-1.259838 l 1.051292,-0.892569 -1.92,0.96154 -1.92,0.96154 -1.680437,-0.101702 c -0.92424,-0.05594 -1.68024,-0.06106 -1.68,-0.01139 8.66e-4,0.179265 1.454099,0.66958 2.04331,0.689404 0.331581,0.01116 1.1545,-0.144987 1.828709,-0.346985 z m 12.385062,-0.07997 c 0.47568,-0.245981 1.15253,-0.768099 1.50411,-1.160262 l 0.63925,-0.713023 -1.24466,0.840262 c -1.9596,1.322921 -2.60894,1.135736 -3.09365,-0.891805 l -0.23618,-0.987933 -0.0328,1.04 c -0.0204,0.647532 0.20876,1.281519 0.60724,1.68 0.7618,0.761797 0.75718,0.761317 1.85665,0.192761 z m 4.90651,-2.432761 c 0.15227,0 0.27685,0.288 0.27685,0.64 v 0.64 h 0.78874 c 0.74098,0 1.45126,-0.775083 1.45126,-1.583666 0,-0.365131 -1.85513,-1.61333 -2.4,-1.614812 -0.176,-4.79e-4 -0.74143,0.749432 -1.2565,1.666469 l -0.9365,1.66734 0.89965,-0.707666 c 0.49481,-0.389216 1.02424,-0.707665 1.1765,-0.707665 z m -42.562337,0.4 0.439182,-0.56 -0.56,0.439182 c -0.308,0.241551 -0.56,0.493551 -0.56,0.56 0,0.263371 0.26278,0.09386 0.680818,-0.439182 z m 9.6,0 0.439182,-0.56 -0.56,0.439182 c -0.533039,0.418039 -0.702553,0.680818 -0.439182,0.680818 0.06645,0 0.31845,-0.252 0.56,-0.56 z m -3.907335,-0.26177 c 0.929304,-0.275974 1.63944,-0.545951 1.578081,-0.599949 -0.06136,-0.054 -1.335564,0.157401 -2.831564,0.469777 -1.908516,0.398513 -2.37932,0.577502 -1.57808,0.599949 0.628056,0.0176 1.902259,-0.193804 2.831563,-0.469777 z m 9.6,0 c 0.929304,-0.275974 1.63944,-0.545951 1.578081,-0.599949 -0.06136,-0.054 -1.335563,0.157401 -2.831563,0.469777 -1.908517,0.398513 -2.379321,0.577502 -1.578081,0.599949 0.628056,0.0176 1.902259,-0.193804 2.831563,-0.469777 z M 28.031881,19.899411 c 1.802996,-1.68573 1.601723,-2.813611 -0.385083,-2.157906 -1.368398,0.451612 -2.759933,2.005544 -2.759933,3.082026 v 0.779742 l 1.195633,-0.499567 c 0.657598,-0.274762 1.534821,-0.816695 1.949383,-1.204295 z m 30.720001,0 c 1.802995,-1.68573 1.601722,-2.813611 -0.385084,-2.157906 -1.368397,0.451612 -2.759932,2.005544 -2.759932,3.082026 v 0.779742 l 1.195633,-0.499567 c 0.657598,-0.274762 1.53482,-0.816695 1.949383,-1.204295 z M 29.989088,19.554914 c -0.07822,-0.07565 -0.414966,0.244349 -0.748318,0.711111 l -0.606095,0.848659 0.748317,-0.711111 c 0.411575,-0.391111 0.684318,-0.773008 0.606096,-0.848659 z m 30.72,0 c -0.07822,-0.07565 -0.414965,0.244349 -0.748318,0.711111 l -0.606095,0.848659 0.748318,-0.711111 c 0.411574,-0.391111 0.684317,-0.773008 0.606095,-0.848659 z M 85.04687,20.48715 c 0,-0.742498 -1.25079,-1.711329 -2.92902,-2.268747 -0.851,-0.282658 -1.68773,-0.754627 -1.8594,-1.048821 -0.17167,-0.294194 -0.3143,-0.390898 -0.31695,-0.214898 -0.01,0.66045 0.52466,1.072356 2.62537,2.022697 1.32832,0.600924 2.16,1.169709 2.16,1.477234 0,0.275038 0.072,0.500069 0.16,0.500069 0.088,0 0.16,-0.21039 0.16,-0.467534 z M 19.347449,17.194684 c -0.08049,-0.308 -0.146343,-0.056 -0.146343,0.56 0,0.616 0.06586,0.868 0.146343,0.56 0.08049,-0.308 0.08049,-0.812 0,-1.12 z M 81.08261,14.671103 c 0.68434,-0.290348 1.05964,-0.59286 0.834,-0.672247 -0.70843,-0.249251 -3.30039,1.669378 -3.99316,2.955828 -0.18955,0.352 0.16376,0.100973 0.78513,-0.557838 0.62138,-0.65881 1.68969,-1.435395 2.37403,-1.725743 z M 67.775759,14.391862 c 0.347109,-0.110168 0.631107,-0.351163 0.631107,-0.535545 0,-0.426252 -1.579585,0.562808 -2.329104,1.458372 -1.14393,1.366827 -1.234398,1.919916 -0.101206,0.618737 0.642453,-0.737693 1.452095,-1.431396 1.799203,-1.541564 z M 71.50415,16.7304 c 0.58449,-0.211356 1.06272,-0.492969 1.06272,-0.625805 0,-0.132837 -0.59411,-0.03191 -1.32024,0.224284 -1.68826,0.595656 -2.35247,0.587389 -2.976907,-0.03705 -0.276571,-0.276571 -0.502857,-0.377371 -0.502857,-0.224 0,1.018066 1.848094,1.345711 3.737284,0.662573 z m -45.296467,-0.495716 0.439182,-0.56 -0.56,0.439183 c -0.308,0.24155 -0.56,0.49355 -0.56,0.56 0,0.26337 0.26278,0.09386 0.680818,-0.439183 z m 30.72,0 0.439183,-0.56 -0.56,0.439183 c -0.308,0.24155 -0.56,0.49355 -0.56,0.56 0,0.26337 0.262779,0.09386 0.680817,-0.439183 z m -38.192782,-0.609107 -0.513869,-0.513869 -0.907083,0.263654 -0.907084,0.263654 0.96,0.122457 c 0.528,0.06735 1.0944,0.252977 1.258667,0.412501 0.164266,0.159524 0.371695,0.217015 0.460952,0.127758 0.08926,-0.08926 -0.06895,-0.393527 -0.351583,-0.676155 z m 12.248654,-0.07971 c -0.372157,-0.695382 -1.616774,-1.170998 -2.322958,-0.887692 -0.227552,0.09129 -0.02445,0.177349 0.451329,0.191244 0.519567,0.01517 1.094684,0.332256 1.44,0.793922 0.67848,0.907087 0.937901,0.848503 0.431629,-0.09747 z m 30.720001,0 c -0.372158,-0.695382 -1.616775,-1.170998 -2.322958,-0.887692 -0.227553,0.09129 -0.02446,0.177349 0.451328,0.191244 0.519567,0.01517 1.094685,0.332256 1.440001,0.793922 0.67848,0.907087 0.9379,0.848503 0.431629,-0.09747 z M 27.904693,14.905845 c -0.08419,-0.08419 -0.401637,0.106456 -0.705447,0.423648 l -0.552381,0.576714 0.705447,-0.423648 c 0.387996,-0.233006 0.636567,-0.492527 0.552381,-0.576714 z m 30.720001,0 c -0.08419,-0.08419 -0.401638,0.106456 -0.705447,0.423648 l -0.552381,0.576714 0.705447,-0.423648 c 0.387995,-0.233006 0.636567,-0.492527 0.552381,-0.576714 z M 43.766865,7.4394314 c 0,-0.3767339 -1.312073,0.02245 -1.89572,0.576746 l -0.45572,0.432805 1.17572,-0.360838 c 0.646646,-0.198462 1.17572,-0.490383 1.17572,-0.648713 z m 9.600001,0 c 0,-0.3767339 -1.312074,0.02245 -1.895721,0.576746 l -0.45572,0.432805 1.17572,-0.360838 c 0.646646,-0.198462 1.175721,-0.490383 1.175721,-0.648713 z M 18.530189,11.481945 17.773513,10.947016 17.933575,9.5269484 c 0.198198,-1.758402 1.604661,-3.5974959 3.222123,-4.2132539 l 1.158386,-0.44099 0.806391,0.528367 0.80639,0.528368 v 1.2252999 c 0,2.842875 -3.512446,5.6592526 -5.396676,4.3272056 z m 2.337838,-4.4574365 c 0.760313,-0.575073 1.669461,-0.608715 1.886908,-0.06982 0.101923,0.2525909 0.170714,0.2062449 0.186667,-0.125764 0.0139,-0.28917 -0.199859,-0.612151 -0.475007,-0.717735 -0.51701,-0.198396 -2.187153,0.513018 -2.538323,1.0812229 -0.288996,0.467604 0.219705,0.376717 0.939755,-0.1679009 z"
       id="path1" />
  </g>
</svg>
